<?xml version="1.0" standalone="no"?>
<!DOCTYPE svg PUBLIC "-//W3C//DTD SVG 20010904//EN"
 "http://www.w3.org/TR/2001/REC-SVG-20010904/DTD/svg10.dtd">
<svg version="1.0" xmlns="http://www.w3.org/2000/svg"
 width="960.000000pt" height="960.000000pt" viewBox="0 0 960.000000 960.000000"
 preserveAspectRatio="xMidYMid meet">
<metadata>
Created by potrace 1.11, written by Peter Selinger 2001-2013
</metadata>
<g transform="translate(0.000000,960.000000) scale(0.100000,-0.100000)"
fill="#000000" stroke="none">
<path d="M5340 9237 c-3 -3 -45 -8 -93 -11 -49 -3 -92 -8 -95 -10 -4 -2 -29
-7 -57 -10 -27 -3 -65 -10 -82 -15 -18 -5 -33 -8 -33 -5 0 3 -8 0 -18 -5 -11
-6 -31 -12 -45 -15 -83 -15 -377 -168 -377 -196 0 -5 -4 -10 -10 -10 -24 0
-200 -208 -200 -237 0 -3 -11 -29 -24 -57 -46 -100 -60 -213 -42 -349 6 -45
11 -97 11 -114 0 -18 2 -33 5 -33 3 0 11 -25 18 -55 15 -63 44 -153 68 -210 9
-22 15 -42 14 -44 -1 -2 2 -7 7 -10 4 -3 16 -24 26 -45 19 -41 101 -166 134
-205 100 -120 335 -321 373 -321 6 0 10 -4 10 -9 0 -16 260 -139 351 -167 80
-24 97 -29 154 -38 13 -3 28 -7 33 -10 4 -3 28 -7 53 -10 24 -3 53 -8 64 -10
11 -2 47 -7 80 -10 33 -4 74 -9 90 -11 46 -7 391 -6 465 0 132 11 156 14 220
21 97 12 405 4 430 -11 3 -1 36 -6 75 -10 38 -4 73 -9 77 -11 4 -2 26 -7 50
-10 24 -3 54 -9 68 -14 48 -16 145 -44 160 -46 32 -4 254 -90 287 -110 12 -8
29 -14 37 -14 8 0 16 -4 18 -9 2 -4 38 -27 81 -51 125 -68 324 -231 310 -253
-3 -6 -1 -7 4 -4 6 4 18 -4 27 -18 9 -14 33 -33 54 -44 20 -11 45 -29 54 -40
28 -34 44 -22 40 29 -6 87 -13 160 -16 177 -3 12 -7 48 -11 79 -3 32 -8 60 -9
63 -2 3 -7 33 -11 66 -3 32 -8 62 -10 65 -4 6 -10 35 -20 85 -2 11 -6 29 -9
40 -26 101 -37 142 -43 155 -3 8 -7 17 -8 20 -19 63 -42 126 -79 220 -25 63
-46 120 -46 127 0 6 -3 13 -7 15 -5 2 -32 50 -62 108 -30 58 -57 107 -60 110
-3 3 -7 11 -9 19 -3 16 -189 292 -206 306 -7 6 -17 17 -22 26 -9 17 -63 82
-126 154 -21 23 -38 47 -38 54 0 6 -5 11 -10 11 -6 0 -54 43 -106 95 -53 52
-100 95 -105 95 -6 0 -7 5 -4 10 3 6 -2 13 -12 17 -10 3 -36 22 -58 42 -66 59
-107 90 -167 129 -32 20 -58 43 -58 50 0 6 -7 12 -16 12 -11 0 -14 5 -10 16 5
13 3 14 -7 6 -9 -8 -25 -3 -60 19 -26 16 -51 29 -56 29 -5 0 -14 6 -20 14 -22
26 -350 179 -491 229 -62 22 -205 66 -227 70 -29 6 -77 18 -93 24 -8 3 -26 7
-40 9 -14 2 -41 6 -60 9 -19 4 -48 9 -65 11 -16 2 -46 6 -65 9 -19 3 -66 7
-105 10 -38 2 -108 7 -155 11 -47 3 -87 4 -90 1z"/>
<path d="M2957 7763 c-2 -1 -50 -5 -107 -7 -57 -3 -127 -10 -154 -15 -28 -6
-73 -13 -101 -16 -156 -19 -537 -139 -702 -222 -18 -8 -39 -13 -47 -10 -9 4
-16 1 -16 -6 0 -11 -23 -26 -135 -85 -27 -15 -52 -29 -55 -33 -3 -3 -23 -16
-45 -29 -62 -36 -148 -93 -170 -112 -11 -9 -43 -34 -71 -55 -99 -74 -150 -119
-275 -243 -125 -125 -172 -178 -264 -300 -27 -36 -53 -66 -57 -68 -4 -2 -8 -9
-8 -16 0 -7 -9 -21 -20 -31 -11 -10 -20 -22 -20 -28 0 -5 -12 -28 -28 -51 -15
-22 -45 -76 -66 -118 -22 -43 -43 -78 -48 -78 -5 0 -7 -4 -4 -8 2 -4 -4 -27
-15 -51 -10 -24 -19 -49 -19 -57 0 -8 -4 -14 -9 -14 -7 0 -20 -31 -22 -55 0
-2 -5 -19 -10 -37 -65 -214 -88 -416 -65 -573 9 -61 47 -186 77 -251 25 -54
109 -176 144 -208 67 -62 95 -86 146 -124 31 -23 58 -42 62 -42 3 0 34 -13 69
-29 84 -38 205 -77 303 -98 128 -27 471 -22 526 7 10 6 19 8 19 6 0 -3 18 1
40 9 22 8 42 15 45 15 3 0 13 3 22 7 125 45 232 100 320 164 32 24 64 48 72
54 22 15 231 224 231 230 0 5 23 34 45 59 15 15 145 206 145 211 0 2 14 27 30
56 38 63 133 251 153 301 9 20 13 39 9 42 -3 3 -1 6 5 6 6 0 13 10 16 23 3 12
24 69 47 127 23 58 43 112 44 120 6 37 83 185 173 329 12 20 30 49 39 65 9 16
25 38 35 49 10 12 19 26 19 33 0 7 3 14 8 16 4 2 27 28 51 58 25 30 50 62 57
70 20 25 239 244 265 265 60 50 171 130 221 160 76 46 113 65 124 65 8 0 14 3
14 8 0 11 128 67 220 97 157 50 158 50 89 85 -35 18 -38 23 -28 41 13 25 0 36
-72 64 -27 11 -49 23 -49 28 0 4 -4 6 -9 3 -4 -3 -32 4 -62 15 -30 11 -62 22
-71 24 -9 2 -25 8 -35 13 -10 5 -43 15 -73 22 -30 7 -62 16 -70 20 -53 26
-394 85 -555 96 -107 7 -324 12 -328 7z"/>
<path d="M4787 6084 c-1 -1 -33 -5 -72 -9 -86 -8 -135 -15 -157 -21 -25 -7
-71 -16 -85 -17 -7 0 -13 -5 -13 -10 0 -6 -3 -8 -6 -5 -5 6 -122 -30 -169 -51
-11 -5 -36 -15 -55 -22 -68 -24 -353 -169 -358 -181 -2 -5 -8 -8 -14 -8 -5 0
-23 -9 -39 -21 -16 -11 -37 -22 -46 -23 -9 -2 -21 -9 -27 -17 -6 -8 -37 -30
-70 -48 -32 -18 -67 -41 -78 -51 -11 -10 -33 -24 -49 -30 -16 -7 -29 -16 -29
-21 0 -5 -7 -9 -15 -9 -8 0 -15 -4 -15 -8 0 -4 -22 -21 -50 -37 -27 -16 -50
-32 -50 -35 0 -3 -16 -14 -35 -24 -19 -11 -35 -23 -35 -28 0 -4 -7 -8 -15 -8
-8 0 -15 -4 -15 -8 0 -4 -19 -20 -42 -35 -24 -15 -55 -37 -70 -49 -15 -13 -43
-36 -63 -52 -44 -35 -45 -65 -4 -108 102 -108 243 -248 250 -248 5 0 9 -7 9
-15 0 -8 4 -15 9 -15 5 0 40 -29 78 -64 37 -35 87 -79 110 -97 23 -19 42 -40
42 -47 1 -7 5 -11 9 -8 5 3 28 -13 51 -35 24 -21 47 -39 52 -39 5 0 9 -4 9
-10 0 -5 19 -22 43 -39 23 -16 60 -46 82 -65 22 -20 43 -36 47 -36 4 0 15 -8
25 -18 32 -32 225 -170 378 -272 61 -40 129 -86 152 -101 23 -16 44 -29 47
-29 3 0 35 -18 71 -40 36 -22 69 -40 74 -40 5 0 11 -4 13 -8 8 -23 575 -288
653 -307 13 -3 44 -14 70 -26 25 -11 118 -40 136 -42 8 -2 19 -5 24 -8 6 -4
28 -10 50 -14 45 -9 54 -12 58 -15 1 -1 11 -3 21 -5 11 -2 49 -11 85 -19 85
-20 219 -45 271 -51 209 -24 567 -24 672 -1 12 3 43 8 69 10 25 3 52 7 60 10
7 3 32 8 54 12 64 10 77 13 135 29 30 9 64 18 75 21 26 7 37 10 55 16 8 3 48
16 88 29 39 13 72 26 72 30 0 3 6 6 13 6 6 0 35 10 62 23 80 37 135 59 142 59
3 0 9 3 12 8 3 5 24 18 46 29 48 23 238 135 245 145 3 3 15 12 28 18 13 7 31
19 40 26 9 8 48 37 86 65 90 66 130 97 175 138 20 19 53 48 75 65 63 52 318
314 386 397 19 24 40 48 45 54 10 10 106 128 123 151 4 6 36 47 70 92 34 45
62 84 62 87 0 6 24 37 48 62 7 8 10 14 6 14 -4 0 1 10 12 23 18 20 40 52 122
181 30 46 40 76 26 76 -3 0 -18 -8 -32 -19 -76 -54 -162 -88 -162 -64 0 10 53
87 63 91 4 2 5 8 1 13 -3 5 -1 9 3 9 14 0 46 79 39 95 -6 17 -22 20 -31 5 -3
-5 -13 -6 -22 -3 -11 4 -14 3 -9 -5 4 -7 1 -12 -7 -12 -8 0 -26 -9 -40 -20
-14 -11 -32 -20 -40 -20 -8 0 -20 -6 -26 -14 -10 -12 -69 -29 -87 -26 -4 1
-10 -3 -13 -8 -3 -5 -58 -20 -121 -33 -103 -21 -141 -24 -370 -24 -253 0 -383
7 -506 29 -12 3 -48 8 -80 11 -33 4 -68 9 -79 11 -77 14 -144 27 -165 30 -14
3 -33 7 -42 10 -25 7 -58 14 -103 19 -22 3 -48 8 -57 11 -9 3 -25 6 -35 8 -10
2 -36 9 -58 14 -22 6 -51 13 -65 16 -14 3 -45 10 -70 17 -25 6 -54 13 -65 15
-43 11 -50 13 -52 14 -4 4 -14 6 -58 14 -22 4 -53 13 -70 19 -16 6 -34 13 -40
14 -5 1 -23 5 -39 8 -27 6 -371 117 -406 132 -8 3 -22 7 -30 9 -8 2 -23 7 -35
13 -30 14 -156 59 -187 67 -16 3 -25 11 -21 17 3 5 1 7 -5 3 -6 -3 -21 -2 -34
3 -35 13 -100 38 -123 47 -11 4 -29 9 -40 11 -10 2 -22 7 -25 12 -3 5 -21 12
-40 16 -32 7 -41 11 -90 35 -11 6 -24 10 -29 10 -5 0 -22 5 -38 12 -15 6 -31
11 -35 10 -4 -1 -24 6 -45 15 -40 16 -150 51 -193 59 -13 3 -27 8 -30 12 -3 4
-16 8 -30 9 -14 1 -56 9 -95 18 -38 9 -83 17 -100 20 -16 2 -30 4 -30 5 0 4
-244 18 -248 14z"/>
<path d="M2586 4815 c-15 -14 -32 -22 -38 -19 -7 5 -8 2 -3 -5 9 -15 -33 -63
-48 -54 -6 3 -7 1 -3 -6 4 -7 -9 -29 -32 -54 -22 -23 -66 -76 -98 -117 -32
-41 -62 -76 -66 -78 -4 -2 -8 -9 -8 -16 0 -7 -8 -21 -17 -32 -10 -10 -24 -31
-32 -46 -8 -16 -18 -28 -23 -28 -4 0 -8 -6 -8 -14 0 -8 -7 -16 -15 -20 -8 -3
-15 -14 -15 -25 0 -11 -5 -23 -10 -26 -6 -4 -20 -25 -31 -48 -12 -23 -25 -44
-28 -47 -4 -3 -26 -43 -50 -90 -24 -47 -46 -87 -50 -90 -3 -3 -8 -14 -9 -25
-2 -11 -10 -27 -18 -36 -8 -8 -14 -24 -14 -35 0 -11 -4 -24 -9 -29 -10 -12
-46 -117 -43 -127 1 -5 -3 -8 -8 -8 -6 0 -10 -7 -10 -16 0 -9 -6 -30 -14 -47
-14 -34 -46 -145 -66 -237 -7 -30 -16 -59 -20 -65 -4 -5 -10 -43 -14 -83 -3
-41 -8 -78 -11 -82 -3 -5 -8 -41 -11 -82 -3 -40 -8 -93 -10 -118 -5 -57 -4
-371 1 -430 3 -25 6 -73 8 -106 3 -34 7 -66 10 -71 3 -4 8 -42 12 -83 4 -41
10 -82 15 -90 4 -8 13 -40 19 -70 25 -114 110 -391 124 -401 5 -3 8 -8 7 -10
-4 -11 23 -73 100 -229 84 -168 90 -179 101 -186 6 -3 14 -16 19 -28 4 -12 30
-53 57 -90 26 -37 53 -77 59 -88 7 -11 25 -34 41 -51 16 -18 45 -52 64 -77 40
-52 179 -192 235 -235 21 -16 48 -39 59 -50 32 -31 215 -150 287 -188 56 -30
173 -77 202 -81 6 -1 17 -5 24 -9 6 -5 12 -6 12 -3 0 2 26 -2 58 -9 144 -34
362 -5 501 66 75 38 203 163 287 281 120 165 225 429 237 590 1 20 5 39 8 42
6 7 3 195 -5 262 -5 47 -10 74 -21 111 -2 10 -10 41 -16 68 -6 28 -22 74 -35
104 -13 29 -24 57 -24 61 0 4 -19 47 -42 96 -23 49 -43 91 -43 94 -4 18 -30
60 -37 60 -4 0 -8 4 -8 10 0 9 -39 72 -60 97 -5 7 -10 15 -10 19 0 3 -13 23
-30 44 -16 21 -30 41 -30 45 0 7 -169 206 -185 217 -5 4 -7 8 -4 8 10 0 -256
264 -314 312 -82 68 -248 239 -242 249 4 5 2 9 -3 9 -8 0 -92 105 -127 159
-43 65 -97 156 -110 183 -8 18 -24 48 -36 67 -11 19 -32 64 -46 100 -14 36
-29 75 -34 86 -19 43 -38 105 -32 105 3 0 0 7 -7 15 -6 7 -20 49 -31 91 -19
78 -22 91 -33 154 -3 19 -9 49 -12 65 -4 17 -8 120 -9 230 -1 110 -3 204 -4
209 0 5 -12 -1 -27 -14 -32 -31 -42 -17 -36 52 3 36 0 53 -9 59 -20 13 -23 12
-53 -16z"/>
<path d="M4311 2587 c-11 -29 29 -157 93 -300 14 -32 26 -59 26 -62 0 -2 23
-53 52 -112 28 -59 51 -111 50 -115 -1 -5 2 -8 7 -8 5 0 11 -12 14 -28 3 -15
15 -38 27 -52 11 -14 53 -74 92 -135 119 -183 193 -276 339 -427 26 -26 44
-50 41 -53 -3 -3 0 -5 6 -5 6 0 45 -34 87 -75 41 -41 78 -75 81 -75 8 0 138
-111 142 -121 2 -5 9 -9 16 -9 7 0 23 -11 36 -25 13 -14 27 -25 32 -25 7 0
152 -93 183 -119 6 -4 35 -20 65 -35 30 -15 62 -33 70 -40 8 -7 38 -23 65 -36
28 -12 82 -37 120 -55 39 -18 115 -49 170 -69 55 -20 107 -40 115 -43 8 -3 20
-7 26 -8 7 -2 52 -14 100 -28 119 -33 233 -58 334 -72 30 -5 62 -9 70 -11 157
-25 548 -25 710 2 133 21 249 43 270 50 8 3 16 5 18 4 1 0 16 7 32 15 17 9 30
13 30 11 0 -6 116 37 190 70 102 46 155 76 234 133 73 52 216 184 216 199 0 4
10 19 23 33 59 66 126 224 143 334 13 86 7 177 -16 250 -5 17 -11 41 -14 55
-12 63 -97 238 -167 342 -22 32 -39 62 -39 67 0 5 -3 11 -7 13 -5 2 -26 26
-48 53 -65 81 -77 94 -147 164 -81 80 -122 113 -200 164 -48 31 -217 116 -253
127 -5 1 -14 4 -20 5 -5 2 -32 10 -60 18 -27 8 -63 18 -80 21 -16 4 -41 9 -55
12 -68 17 -162 22 -340 19 -198 -4 -242 -7 -340 -27 -30 -6 -62 -12 -70 -14
-8 -1 -32 -4 -52 -7 -20 -3 -56 -11 -80 -18 -24 -7 -48 -13 -54 -15 -21 -4
-219 -65 -239 -74 -11 -4 -45 -17 -75 -28 -30 -11 -75 -28 -100 -37 -25 -9
-56 -19 -68 -21 -13 -3 -49 -11 -80 -19 -31 -8 -67 -15 -80 -15 -13 0 -31 -4
-40 -9 -43 -23 -271 -45 -467 -45 -168 0 -261 8 -380 33 -59 12 -90 19 -130
27 -104 21 -365 125 -365 145 0 5 -7 9 -16 9 -9 0 -32 9 -50 21 -19 11 -34 17
-34 12 0 -4 -4 -3 -8 2 -11 16 -95 69 -120 77 -18 5 -25 2 -31 -15z"/>
</g>
</svg>
